<?xml version="1.0" encoding="utf-8"?>
<!-- Generator: Adobe Illustrator 16.0.0, SVG Export Plug-In . SVG Version: 6.00 Build 0)  -->
<!DOCTYPE svg PUBLIC "-//W3C//DTD SVG 1.1//EN" "http://www.w3.org/Graphics/SVG/1.1/DTD/svg11.dtd">
<svg version="1.1" id="GitHub" xmlns="http://www.w3.org/2000/svg" xmlns:xlink="http://www.w3.org/1999/xlink" x="0px" y="0px"
	 width="100%" height="100%" viewBox="0 0 250 250" enable-background="new 0 0 250 250" xml:space="preserve">
<circle fill="#FFFFFF" cx="125" cy="125" r="125"/>
<g id="oaCSQa.tif">
	<g>
		<path fill-rule="evenodd" clip-rule="evenodd" fill="#AFD7B6" d="M108.144043,144.84668
			c-2.642578,2.631836-4.683594,5.129883-5.418945,8.313477c-0.466797,2.019531-1.743164,2.8125-3.467773,3.336914
			c-8.259766,2.512695-14.698242,0.441406-19.929688-6.369141c-2.039062-2.65625-3.964844-5.425781-6.754883-7.401367
			c-2.350586-1.666016-4.918945-2.607422-7.830078-2.15332c-1.095703,0.169922-2.464844,0.253906-2.724609,1.663086
			c-0.225586,1.216797,0.762695,1.947266,1.65625,2.511719c4.828125,3.041992,7.910156,7.390625,10.102539,12.601562
			c2.561523,6.089844,7.041016,10.108398,13.685547,11.506836c3.905273,0.823242,7.811523,0.527344,11.711914,0.230469
			c1.899414-0.143555,2.417969,0.491211,2.375,2.307617c-0.101562,4.087891-0.101562,8.182617,0.015625,12.268555
			c0.081055,2.893555-1.077148,5.036133-3.326172,6.719727c-1.045898,0.78418-2.148438,1.52832-3.048828,2.459961
			c-1.34668,1.392578-0.989258,2.44043,0.875977,3.010742c6.836914,2.084961,15.045898-3.823242,15.075195-10.876953
			c0.027344-6.871094,0.006836-13.743164,0.033203-20.613281c0.007812-1.939453,0.359375-3.78125,1.904297-5.407227
			c0.142578,0.479492,0.262695,0.703125,0.268555,0.930664c0.267578,9.405273,0.108398,18.8125-0.151367,28.213867
			c-0.075195,2.745117-0.425781,5.585938-2.625977,7.708008c-0.892578,0.860352-1.919922,1.824219-1.089844,3.161133
			c0.822266,1.328125,2.258789,1.204102,3.546875,0.833008c5.245117-1.509766,9.051758-4.530273,10.105469-10.174805
			c0.556641-2.97168,0.831055-5.986328,0.827148-9.020508c-0.008789-7.200195-0.005859-14.398438,0.017578-21.595703
			c0.001953-0.683594-0.204102-1.6875,0.858398-1.716797c0.879883-0.025391,0.841797,0.875,0.857422,1.5
			c0.125,4.820312,0.492676,9.65332,0.25293,14.457031c-0.237305,4.751953-0.250977,9.473633,0.183105,14.199219
			c0.583008,6.359375,4.861328,11.107422,11.113281,12.433594c1.083984,0.230469,2.151367,0.302734,2.913086-0.692383
			c0.78418-1.024414,0.311523-2.020508-0.223633-2.96875c-0.241211-0.423828-0.520508-0.835938-0.833984-1.210938
			c-2.141602-2.571289-2.982422-5.510742-2.943359-8.858398c0.091797-8.260742,0.018555-16.524414,0.044922-24.786133
			c0.00293-0.805664-0.310547-1.751953,0.648438-2.5625c1.287109,1.694336,1.506836,3.520508,1.542969,5.405273
			c0.141602,7.19043,0.339844,14.382812,0.415039,21.576172c0.042969,3.939453,1.905273,6.654297,5.229492,8.508789
			c2.271484,1.268555,4.77832,1.710938,7.324219,1.751953c1.417969,0.021484,3.320312,0.203125,3.869141-1.410156
			c0.554688-1.636719-1.383789-2.145508-2.332031-3.061523c-0.352539-0.339844-0.768555-0.611328-1.15918-0.90918
			c-2.298828-1.749023-3.539062-3.9375-3.31543-6.954102c0.178711-2.442383,0.064453-4.90625,0.070312-7.360352
			c0.007812-3.435547,0.067383-6.873047-0.00293-10.306641c-0.161133-7.686523,0.010742-15.494141-7.045898-21.296875
			c2.743164-0.429688,5-0.741211,7.240234-1.141602c11.705078-2.085938,22.381836-5.878906,28.40332-17.298828
			c0.523438-0.992188,1.354492-1.363281,2.436523-1.283203c5.212891,0.382324,10.436523,0.667969,15.638672,1.166992
			c8.30957,0.796875,16.524414,2.175781,24.576172,4.43457c0.672852,0.189453,1.59668,0.541016,1.832031-0.5
			c0.214844-0.954102-0.726562-1.198242-1.399414-1.389648c-2.042969-0.577148-4.098633-1.125-6.170898-1.588867
			c-10.802734-2.419434-21.779297-3.428711-32.811523-3.978027c-0.78418-0.039551-2.069336,0.513672-2.191406-0.831055
			c-0.124023-1.380371,0.973633-1.98291,2.208984-2.156738c0.722656-0.101562,1.469727-0.077637,2.203125-0.048828
			c2.12207,0.08252,4.240234,0.26123,6.362305,0.288574c8.591797,0.111816,17.144531,0.674316,25.637695,2.014648
			c1.777344,0.280273,3.557617,0.526855,5.336914,0.776855c0.604492,0.084961,1.242188,0.021973,1.350586-0.696289
			c0.102539-0.684082-0.46582-0.993652-1.044922-1.155762c-0.391602-0.110352-0.803711-0.141602-1.206055-0.213379
			c-12.189453-2.187012-24.496094-2.91748-36.856445-2.836914c-2.166016,0.013184-2.926758-0.415039-2.339844-2.772461
			c1.208984-4.857422,1.499023-9.879395,1.472656-14.848145c-0.048828-9.681641-2.671875-18.569336-9.262695-25.975586
			c-0.995117-1.116211-1.239258-2.287109-1.004883-3.822754c0.932617-6.106445,1.15332-12.200195-0.973633-18.168945
			c-0.696289-1.956055-1.831055-2.870605-4.004883-2.768555c-2.245117,0.105469-4.369141,0.57373-6.452148,1.327637
			c-4.708984,1.706055-9.120117,4.02832-13.394531,6.617676c-1.077148,0.651855-2.133789,1.202637-3.449219,0.874512
			c-3.984375-0.992676-8.058594-1.367188-12.133789-1.615723c-8.927246-0.544922-17.848145-0.359863-26.546387,1.908691
			c-2.429688,0.633789-4.118164,0.260254-6.083984-1.073242c-5.59375-3.791504-11.576172-6.769531-18.369141-7.771973
			c-3.202148-0.472168-3.886719-0.103516-4.921875,2.937012c-2.134766,6.263672-2.527344,12.653809-0.973633,19.086426
			c0.47168,1.953613,0.138672,3.397461-1.124023,4.935547c-3.303711,4.027344-5.823242,8.478027-6.786133,13.697754
			c-1.527344,8.270508-0.821289,16.437988,1.020508,24.560547c0.594727,2.618652,0.507812,2.771973-2.232422,2.842773
			c-8.744141,0.224609-17.472656,0.728516-26.178711,1.544922c-3.330078,0.311523-6.632812,0.916504-9.942383,1.418945
			c-0.745117,0.112305-1.589844,0.38623-1.385742,1.34082c0.18457,0.864746,1.008789,0.622559,1.648438,0.522461
			c1.129883-0.17627,2.25293-0.391602,3.386719-0.549805c11.430664-1.602539,22.958984-1.811523,34.459961-2.42627
			c1.418945-0.076172,2.302734,0.628906,2.34082,1.92334c0.046875,1.555664-1.351562,1.076172-2.208984,1.106934
			c-12.213867,0.438477-24.24707,2.124512-36.078125,5.188477c-1.238281,0.321289-3.658203,0.248047-3.290039,1.708008
			c0.488281,1.930664,2.553711,0.456055,3.760742,0.141602c11.842773-3.082031,23.915039-4.489746,36.092773-5.165527
			c1.59082-0.088379,3.175781-0.333008,4.299805,1.491699c4.349609,7.046875,10.799805,11.460938,18.425781,14.354492
			C96.209473,142.951172,101.911621,143.919922,108.144043,144.84668z"/>
		<path fill-rule="evenodd" clip-rule="evenodd" fill="#AFD7B6" d="M126.197266,139.924805
			c-8.29248-0.054688-16.23877,0.217773-24.060059-1.50293c-2.647461-0.583008-5.200195-1.441406-7.652344-2.588867
			c-12.71875-5.950195-14.539062-18.711914-11.920898-27.358398c2.46875-8.150391,9.150391-13.163086,17.662109-13.518066
			c6.791992-0.284668,13.560547,0.475586,20.335938,0.759277c6.398926,0.26709,12.741699-0.154785,19.101074-0.488281
			c4.004883-0.209961,8.026367-0.692383,11.990234-0.008301c8.213867,1.416992,13.500977,6.837891,15.073242,15.077148
			c0.731445,3.829102,0.69043,7.641602-0.147461,11.439453c-2.081055,9.452637-8.623047,15.190918-19.463867,17.148926
			C140.063477,140.157227,132.9375,139.830078,126.197266,139.924805z M143.245117,116.332031
			c-0.02832,1.340332,0.535156,3.521484,1.874023,5.462891c2.365234,3.430176,6.270508,3.452637,8.722656,0.072266
			c2.606445-3.591309,2.53418-9.602539-0.157227-13.108887c-2.304688-3.00293-5.967773-3.056641-8.299805-0.063965
			C143.878906,110.626953,143.283203,112.892578,143.245117,116.332031z M107.278809,115.448242
			c-0.048828-2.764648-0.634766-5.351074-2.676758-7.375c-2.162109-2.141113-5.043945-2.103516-7.177734,0.023926
			c-3.445312,3.436523-3.447266,11.17041-0.003906,14.594238c2.414062,2.399414,5.500977,2.264648,7.648438-0.40332
			C106.664551,120.307129,107.309082,117.97998,107.278809,115.448242z"/>
		<g>
			<path fill-rule="evenodd" clip-rule="evenodd" fill="#AFD7B6" d="M108.144043,144.84668
				c-6.232422-0.926758-11.93457-1.895508-17.383789-3.963867c-7.625977-2.893555-14.076172-7.307617-18.425781-14.354492
				c-1.124023-1.824707-2.708984-1.580078-4.299805-1.491699c-12.177734,0.675781-24.25,2.083496-36.092773,5.165527
				c-1.207031,0.314453-3.272461,1.789062-3.760742-0.141602c-0.368164-1.459961,2.051758-1.386719,3.290039-1.708008
				c11.831055-3.063965,23.864258-4.75,36.078125-5.188477c0.857422-0.030762,2.255859,0.44873,2.208984-1.106934
				c-0.038086-1.294434-0.921875-1.999512-2.34082-1.92334c-11.500977,0.614746-23.029297,0.82373-34.459961,2.42627
				c-1.133789,0.158203-2.256836,0.373535-3.386719,0.549805c-0.639648,0.100098-1.463867,0.342285-1.648438-0.522461
				c-0.204102-0.95459,0.640625-1.228516,1.385742-1.34082c3.30957-0.502441,6.612305-1.107422,9.942383-1.418945
				c8.706055-0.816406,17.43457-1.320312,26.178711-1.544922c2.740234-0.070801,2.827148-0.224121,2.232422-2.842773
				c-1.841797-8.122559-2.547852-16.290039-1.020508-24.560547c0.962891-5.219727,3.482422-9.67041,6.786133-13.697754
				c1.262695-1.538086,1.595703-2.981934,1.124023-4.935547c-1.553711-6.432617-1.161133-12.822754,0.973633-19.086426
				c1.035156-3.040527,1.719727-3.40918,4.921875-2.937012c6.792969,1.002441,12.775391,3.980469,18.369141,7.771973
				c1.96582,1.333496,3.654297,1.707031,6.083984,1.073242c8.698242-2.268555,17.619141-2.453613,26.546387-1.908691
				c4.075195,0.248535,8.149414,0.623047,12.133789,1.615723c1.31543,0.328125,2.37207-0.222656,3.449219-0.874512
				c4.274414-2.589355,8.685547-4.911621,13.394531-6.617676c2.083008-0.753906,4.207031-1.222168,6.452148-1.327637
				c2.173828-0.102051,3.308594,0.8125,4.004883,2.768555c2.126953,5.96875,1.90625,12.0625,0.973633,18.168945
				c-0.234375,1.535645,0.009766,2.706543,1.004883,3.822754c6.59082,7.40625,9.213867,16.293945,9.262695,25.975586
				c0.026367,4.96875-0.263672,9.990723-1.472656,14.848145c-0.586914,2.357422,0.173828,2.785645,2.339844,2.772461
				c12.360352-0.080566,24.666992,0.649902,36.856445,2.836914c0.402344,0.071777,0.814453,0.103027,1.206055,0.213379
				c0.579102,0.162109,1.147461,0.47168,1.044922,1.155762c-0.108398,0.718262-0.746094,0.78125-1.350586,0.696289
				c-1.779297-0.25-3.55957-0.496582-5.336914-0.776855c-8.493164-1.340332-17.045898-1.902832-25.637695-2.014648
				c-2.12207-0.027344-4.240234-0.206055-6.362305-0.288574c-0.733398-0.028809-1.480469-0.052734-2.203125,0.048828
				c-1.235352,0.173828-2.333008,0.776367-2.208984,2.156738c0.12207,1.344727,1.407227,0.791504,2.191406,0.831055
				c11.032227,0.549316,22.008789,1.558594,32.811523,3.978027c2.072266,0.463867,4.12793,1.011719,6.170898,1.588867
				c0.672852,0.191406,1.614258,0.435547,1.399414,1.389648c-0.235352,1.041016-1.15918,0.689453-1.832031,0.5
				c-8.051758-2.258789-16.266602-3.637695-24.576172-4.43457c-5.202148-0.499023-10.425781-0.784668-15.638672-1.166992
				c-1.082031-0.080078-1.913086,0.291016-2.436523,1.283203c-6.021484,11.419922-16.698242,15.212891-28.40332,17.298828
				c-2.240234,0.400391-4.49707,0.711914-7.240234,1.141602c7.056641,5.802734,6.884766,13.610352,7.045898,21.296875
				c0.070312,3.433594,0.010742,6.871094,0.00293,10.306641c-0.005859,2.454102,0.108398,4.917969-0.070312,7.360352
				c-0.223633,3.016602,1.016602,5.205078,3.31543,6.954102c0.390625,0.297852,0.806641,0.569336,1.15918,0.90918
				c0.948242,0.916016,2.886719,1.424805,2.332031,3.061523c-0.548828,1.613281-2.451172,1.431641-3.869141,1.410156
				c-2.545898-0.041016-5.052734-0.483398-7.324219-1.751953c-3.324219-1.854492-5.186523-4.569336-5.229492-8.508789
				c-0.075195-7.193359-0.273438-14.385742-0.415039-21.576172c-0.036133-1.884766-0.255859-3.710938-1.542969-5.405273
				c-0.958984,0.810547-0.645508,1.756836-0.648438,2.5625c-0.026367,8.261719,0.046875,16.525391-0.044922,24.786133
				c-0.039062,3.347656,0.801758,6.287109,2.943359,8.858398c0.313477,0.375,0.592773,0.787109,0.833984,1.210938
				c0.535156,0.948242,1.007812,1.944336,0.223633,2.96875c-0.761719,0.995117-1.829102,0.922852-2.913086,0.692383
				c-6.251953-1.326172-10.530273-6.074219-11.113281-12.433594c-0.434082-4.725586-0.42041-9.447266-0.183105-14.199219
				c0.239746-4.803711-0.12793-9.636719-0.25293-14.457031c-0.015625-0.625,0.022461-1.525391-0.857422-1.5
				c-1.0625,0.029297-0.856445,1.033203-0.858398,1.716797c-0.023438,7.197266-0.026367,14.395508-0.017578,21.595703
				c0.003906,3.03418-0.270508,6.048828-0.827148,9.020508c-1.053711,5.644531-4.860352,8.665039-10.105469,10.174805
				c-1.288086,0.371094-2.724609,0.495117-3.546875-0.833008c-0.830078-1.336914,0.197266-2.300781,1.089844-3.161133
				c2.200195-2.12207,2.550781-4.962891,2.625977-7.708008c0.259766-9.401367,0.418945-18.808594,0.151367-28.213867
				c-0.005859-0.227539-0.125977-0.451172-0.268555-0.930664c-1.544922,1.625977-1.896484,3.467773-1.904297,5.407227
				c-0.026367,6.870117-0.005859,13.742188-0.033203,20.613281c-0.029297,7.053711-8.238281,12.961914-15.075195,10.876953
				c-1.865234-0.570312-2.222656-1.618164-0.875977-3.010742c0.900391-0.931641,2.00293-1.675781,3.048828-2.459961
				c2.249023-1.683594,3.407227-3.826172,3.326172-6.719727c-0.117188-4.085938-0.117188-8.180664-0.015625-12.268555
				c0.042969-1.816406-0.475586-2.451172-2.375-2.307617c-3.900391,0.296875-7.806641,0.592773-11.711914-0.230469
				c-6.644531-1.398438-11.124023-5.416992-13.685547-11.506836c-2.192383-5.210938-5.274414-9.55957-10.102539-12.601562
				c-0.893555-0.564453-1.881836-1.294922-1.65625-2.511719c0.259766-1.40918,1.628906-1.493164,2.724609-1.663086
				c2.911133-0.454102,5.479492,0.487305,7.830078,2.15332c2.790039,1.975586,4.71582,4.745117,6.754883,7.401367
				c5.231445,6.810547,11.669922,8.881836,19.929688,6.369141c1.724609-0.524414,3.000977-1.317383,3.467773-3.336914
				C103.460449,149.976562,105.501465,147.478516,108.144043,144.84668z M126.197266,139.924805
				c6.740234-0.094727,13.866211,0.232422,20.917969-1.040039c10.84082-1.958008,17.382812-7.696289,19.463867-17.148926
				c0.837891-3.797852,0.878906-7.610352,0.147461-11.439453c-1.572266-8.239258-6.859375-13.660156-15.073242-15.077148
				c-3.963867-0.684082-7.985352-0.20166-11.990234,0.008301c-6.359375,0.333496-12.702148,0.755371-19.101074,0.488281
				c-6.775391-0.283691-13.543945-1.043945-20.335938-0.759277c-8.511719,0.35498-15.193359,5.367676-17.662109,13.518066
				c-2.618164,8.646484-0.797852,21.408203,11.920898,27.358398c2.452148,1.147461,5.004883,2.005859,7.652344,2.588867
				C109.958496,140.142578,117.904785,139.870117,126.197266,139.924805z"/>
			<path fill-rule="evenodd" clip-rule="evenodd" fill="#AFD7B6" d="M143.245117,116.332031
				c0.038086-3.439453,0.633789-5.705078,2.139648-7.637695c2.332031-2.992676,5.995117-2.938965,8.299805,0.063965
				c2.691406,3.506348,2.763672,9.517578,0.157227,13.108887c-2.452148,3.380371-6.357422,3.35791-8.722656-0.072266
				C143.780273,119.853516,143.216797,117.672363,143.245117,116.332031z"/>
			<path fill-rule="evenodd" clip-rule="evenodd" fill="#AFD7B6" d="M107.278809,115.448242
				c0.030273,2.531738-0.614258,4.858887-2.209961,6.839844c-2.147461,2.667969-5.234375,2.802734-7.648438,0.40332
				c-3.443359-3.423828-3.441406-11.157715,0.003906-14.594238c2.133789-2.127441,5.015625-2.165039,7.177734-0.023926
				C106.644043,110.097168,107.22998,112.683594,107.278809,115.448242z"/>
		</g>
	</g>
</g>
<g>
</g>
<g>
</g>
<g>
</g>
<g>
</g>
<g>
</g>
<g>
</g>
<g>
</g>
<g>
</g>
<g>
</g>
<g>
</g>
<g>
</g>
<g>
</g>
<g>
</g>
<g>
</g>
<g>
</g>
</svg>
